<svg xmlns="http://www.w3.org/2000/svg" fill-rule="evenodd" stroke-linejoin="round" stroke-miterlimit="2" clip-rule="evenodd" viewBox="0 0 500 500" id="audio-on">
  <path d="M316.854 48.245a7.5 7.5 0 0 0-11.177-6.537l-170.248 95.765a7.498 7.498 0 0 0-3.823 6.536v211.982a7.5 7.5 0 0 0 3.823 6.537l170.248 95.764a7.5 7.5 0 0 0 11.177-6.537V48.245Zm75.2 93.589c28.346 36.685 43.176 73.045 43.338 109.224.161 36.001-14.263 71.564-43.116 106.829-4.477 5.473-3.669 13.552 1.804 18.03 5.473 4.477 13.552 3.669 18.03-1.804 33.19-40.568 49.092-81.755 48.907-123.17-.185-41.238-16.376-82.962-48.685-124.777-4.324-5.595-12.377-6.628-17.973-2.305-5.595 4.324-6.628 12.377-2.305 17.973Zm-282.061 5.289a7.5 7.5 0 0 0-7.5-7.5H46.481a7.499 7.499 0 0 0-7.5 7.5v205.754a7.501 7.501 0 0 0 7.5 7.5h56.012a7.501 7.501 0 0 0 7.5-7.5V147.123Zm234.257 44.542c27.762 45.583 27.698 83.65 1.156 115.067-4.564 5.401-3.883 13.492 1.518 18.055 5.402 4.564 13.493 3.883 18.056-1.518 33.431-39.571 36.123-87.52 1.156-144.934-3.679-6.039-11.568-7.956-17.608-4.278-6.039 3.679-7.956 11.568-4.278 17.608Z"></path>
</svg>
