<svg xmlns="http://www.w3.org/2000/svg" fill-rule="evenodd" stroke-linejoin="round" stroke-miterlimit="2" clip-rule="evenodd" viewBox="0 0 500 500" id="mute">
  <path d="M320.831 48.245a7.5 7.5 0 0 0-11.177-6.537l-170.248 95.765a7.498 7.498 0 0 0-3.823 6.536v211.982a7.5 7.5 0 0 0 3.823 6.537l170.248 95.764a7.5 7.5 0 0 0 11.177-6.537V48.245ZM113.97 147.123a7.5 7.5 0 0 0-7.5-7.5H50.458a7.499 7.499 0 0 0-7.5 7.5v205.754a7.501 7.501 0 0 0 7.5 7.5h56.012a7.501 7.501 0 0 0 7.5-7.5V147.123Zm294.2 83.833-27.003-27.002c-5-5-13.119-5-18.119 0s-5 13.119 0 18.119l27.002 27.003-27.002 27.003c-5 5-5 13.119 0 18.119s13.119 5 18.119 0l27.003-27.002 27.003 27.002c5 5 13.119 5 18.119 0s5-13.119 0-18.119l-27.002-27.003 27.002-27.003c5-5 5-13.119 0-18.119s-13.119-5-18.119 0l-27.003 27.002Z"></path>
</svg>
